<?xml version="1.0" encoding="iso-8859-1"?>
<!-- Generator: Adobe Illustrator 19.0.0, SVG Export Plug-In . SVG Version: 6.00 Build 0)  -->
<svg version="1.1" id="Capa_1" xmlns="http://www.w3.org/2000/svg" xmlns:xlink="http://www.w3.org/1999/xlink" x="0px" y="0px"
	 viewBox="0 0 464.004 464.004" style="enable-background:new 0 0 464.004 464.004;" xml:space="preserve">
<g>
	<g>
		<path d="M461.658,354.33l-31.44-31.44L238.658,35.546c-0.04-0.056-0.096-0.088-0.136-0.144c-0.264-0.376-0.6-0.672-0.92-0.992
			c-0.28-0.28-0.528-0.6-0.848-0.832c-0.296-0.216-0.64-0.352-0.968-0.528c-0.424-0.232-0.84-0.488-1.296-0.632
			c-0.056-0.016-0.104-0.064-0.168-0.08c-0.312-0.096-0.624-0.072-0.936-0.128c-0.456-0.088-0.912-0.192-1.384-0.192
			s-0.928,0.104-1.384,0.184c-0.312,0.056-0.624,0.032-0.936,0.128c-0.064,0.016-0.104,0.064-0.168,0.08
			c-0.464,0.152-0.872,0.4-1.296,0.64c-0.32,0.176-0.672,0.312-0.96,0.528c-0.32,0.232-0.568,0.552-0.848,0.832
			c-0.32,0.32-0.664,0.624-0.92,0.992c-0.04,0.056-0.096,0.088-0.136,0.144L33.786,322.89l-31.44,31.44
			c-3.128,3.128-3.128,8.184,0,11.312c1.56,1.56,3.608,2.344,5.656,2.344s4.096-0.784,5.656-2.344L37.81,341.49l24.4,48.8
			l-29.08,27.92c-3.184,3.064-3.288,8.128-0.232,11.312c1.568,1.64,3.664,2.464,5.768,2.464c1.992,0,3.992-0.744,5.536-2.224
			l31.016-29.776h60.784h192h60.688l29.656,29.656c1.56,1.56,3.608,2.344,5.656,2.344c2.048,0,4.096-0.784,5.656-2.344
			c3.128-3.128,3.128-8.184,0-11.312l-27.92-27.92l24.456-48.92l24.152,24.152c1.56,1.56,3.608,2.344,5.656,2.344
			c2.048,0,4.096-0.784,5.656-2.344C464.786,362.514,464.786,357.458,461.658,354.33z M128.002,383.986H76.946l-27.712-55.424
			L224.002,66.41v66.768L97.754,290.986c-2.544,3.184-2.288,7.776,0.592,10.656c19.128,19.128,29.656,44.56,29.656,71.624V383.986z
			 M142.13,352.29c-0.112-0.624-0.272-1.224-0.392-1.848c-0.496-2.528-1.064-5.04-1.728-7.52c-0.264-1-0.56-1.992-0.856-2.992
			c-0.648-2.192-1.36-4.368-2.136-6.512c-0.32-0.888-0.624-1.792-0.968-2.672c-1.136-2.928-2.368-5.824-3.736-8.648
			c-0.16-0.328-0.352-0.648-0.512-0.976c-1.248-2.512-2.6-4.984-4.032-7.408c-0.504-0.848-1.032-1.688-1.56-2.528
			c-1.232-1.968-2.528-3.904-3.88-5.8c-0.552-0.776-1.096-1.56-1.672-2.328c-1.928-2.56-3.928-5.08-6.072-7.504l92.28-115.352
			l-32.328,86.208l-32.336,86.24C142.178,352.53,142.146,352.41,142.13,352.29z M147.546,383.986l84.456-225.208l84.456,225.208
			H147.546z M331.682,322.106c-1.368,2.832-2.6,5.72-3.736,8.648c-0.344,0.888-0.648,1.784-0.968,2.68
			c-0.768,2.144-1.488,4.312-2.128,6.504c-0.296,1-0.584,1.992-0.856,3c-0.656,2.48-1.232,4.984-1.728,7.512
			c-0.12,0.616-0.28,1.224-0.392,1.848c-0.024,0.12-0.056,0.24-0.072,0.36l-32.336-86.224l-32.328-86.208l92.28,115.352
			c-2.152,2.408-4.152,4.92-6.072,7.488c-0.576,0.768-1.12,1.552-1.68,2.336c-1.352,1.896-2.64,3.824-3.872,5.792
			c-0.528,0.84-1.064,1.68-1.568,2.536c-1.432,2.424-2.784,4.888-4.032,7.4C332.026,321.458,331.842,321.778,331.682,322.106z
			 M387.058,383.986h-51.056v-10.72c0-27.064,10.528-52.504,29.656-71.624c2.88-2.88,3.144-7.472,0.592-10.656L240.002,133.17
			V66.402l174.768,262.16L387.058,383.986z"/>
	</g>
</g>
<g>
</g>
<g>
</g>
<g>
</g>
<g>
</g>
<g>
</g>
<g>
</g>
<g>
</g>
<g>
</g>
<g>
</g>
<g>
</g>
<g>
</g>
<g>
</g>
<g>
</g>
<g>
</g>
<g>
</g>
</svg>
